<svg width="160" height="26" viewBox="0 0 160 26" fill="none" xmlns="http://www.w3.org/2000/svg">
<path d="M113.749 12.2112L112.9 12.2112C113.042 12.4367 113.148 12.6741 113.219 12.9352C113.289 13.1963 113.325 13.4633 113.325 13.7363C113.325 14.2169 113.242 14.6561 113.083 15.0536C112.918 15.4572 112.694 15.8013 112.4 16.0862C112.093 16.3829 111.745 16.6083 111.345 16.7626C110.944 16.9228 110.508 17 110.037 17C109.565 17 109.111 16.9228 108.711 16.7626C108.31 16.6024 107.962 16.3769 107.674 16.0862C107.379 15.8013 107.155 15.4572 106.99 15.0536C106.831 14.6501 106.748 14.211 106.748 13.7363C106.748 13.4633 106.784 13.1963 106.86 12.9352C106.937 12.6741 107.037 12.4367 107.173 12.2112L106.324 12.2112L106.324 10.5675L109.123 10.5675L109.123 9.39258L110.944 9.39258L110.944 10.5675L113.743 10.5675L113.743 12.2112L113.749 12.2112ZM117.096 22.0736L108.705 22.0736C108.292 22.0736 107.951 21.9371 107.68 21.6523C107.414 21.3734 107.279 21.0411 107.279 20.6554L107.279 17.4213L109.111 17.4213L109.111 20.1806C109.111 20.2637 109.123 20.323 109.153 20.3646C109.182 20.4061 109.241 20.4239 109.318 20.4239L115.252 20.4239L115.269 10.1759L117.084 10.1759L117.084 12.4783L119.005 12.4783L119.005 14.1279L117.084 14.1279L117.084 22.0736L117.096 22.0736ZM110.037 12.1163C109.589 12.1163 109.235 12.2646 108.976 12.5495C108.711 12.8402 108.581 13.2319 108.581 13.7303C108.581 14.2288 108.711 14.6264 108.976 14.9112C109.235 15.202 109.589 15.3444 110.037 15.3444C110.484 15.3444 110.82 15.202 111.085 14.9112C111.351 14.6204 111.486 14.2288 111.486 13.7303C111.486 13.2319 111.351 12.8402 111.085 12.5495C110.82 12.2587 110.467 12.1163 110.037 12.1163Z" fill="white"/>
<path d="M129.232 14.3361L129.232 12.2355C129.232 12.1654 129.214 12.1071 129.179 12.0604C129.144 12.0137 129.091 11.9904 129.02 11.9904L120.428 11.9904L120.428 10.3682L129.638 10.3682C130.044 10.3682 130.379 10.5082 130.65 10.7883C130.921 11.0684 131.062 11.3952 131.062 11.7628L131.062 14.3303L131.686 14.3303L131.686 15.9525L126.666 15.9525L126.666 17.9948L129.644 17.9948C130.05 17.9948 130.385 18.1349 130.656 18.415C130.927 18.6951 131.068 19.0219 131.068 19.3895L131.068 22.0737L129.238 22.0737L129.238 19.868C129.238 19.7863 129.22 19.7279 129.185 19.6812C129.149 19.6346 129.097 19.6171 129.026 19.6171L120.434 19.6171L120.434 17.9948L124.836 17.9948L124.836 15.9525L119.98 15.9525L119.98 14.3303L129.238 14.3303L129.232 14.3361Z" fill="white"/>
<path d="M137.891 12.1803C137.959 12.6785 138.192 13.0759 138.594 13.3784C138.99 13.6809 139.54 13.8707 140.237 13.9478L140.237 15.5967C139.449 15.5967 138.786 15.4602 138.243 15.1755C137.699 14.8968 137.268 14.5469 136.945 14.1317C136.605 14.5469 136.163 14.8968 135.625 15.1755C135.087 15.4543 134.424 15.5967 133.637 15.5967L133.637 13.9478C134.334 13.8647 134.883 13.6749 135.28 13.3784C135.676 13.0818 135.914 12.6785 135.982 12.1803L133.682 12.1803L133.682 10.5373L136.039 10.5373L136.039 9.39258L137.829 9.39258L137.829 10.5373L140.186 10.5373L140.186 12.1803L137.886 12.1803L137.891 12.1803ZM135.529 22.0736C135.104 22.0736 134.764 21.9312 134.521 21.6465C134.277 21.3618 134.158 21.0237 134.158 20.6263L134.158 18.2776L142.486 18.2776L142.486 17.6489L134.158 17.6489L134.158 16.0771L143.319 16.0771C143.608 16.0771 143.84 16.1661 144.004 16.344C144.169 16.5219 144.248 16.7592 144.248 17.0498L144.248 19.7307L135.909 19.7307L135.909 20.4188L144.367 20.4188L144.367 22.0617L135.529 22.0617L135.529 22.0736ZM144.253 15.5967L142.492 15.5967L142.492 13.7224L140.747 13.7224L140.747 12.0735L142.492 12.0735L142.492 10.1814L144.253 10.1814L144.253 15.5907L144.253 15.5967Z" fill="white"/>
<path d="M147.886 15.4502L147.886 11.7344C147.886 11.3743 148.022 11.0541 148.289 10.7797C148.555 10.5053 148.892 10.3682 149.3 10.3682L158.421 10.3682L158.421 11.9574L149.939 11.9574C149.85 11.9574 149.791 11.9803 149.756 12.026C149.726 12.0717 149.708 12.1289 149.708 12.1975L149.708 15.0043C149.708 15.0843 149.726 15.1415 149.756 15.1815C149.791 15.2215 149.844 15.2387 149.939 15.2387L158.421 15.2387L158.421 16.8222L154.062 16.8222L154.062 19.509L159 19.509L159 21.0982L147.295 21.0982L147.295 19.509L152.234 19.509L152.234 16.8222L149.3 16.8222C148.892 16.8222 148.555 16.6907 148.289 16.4163C148.022 16.1419 147.886 15.8275 147.886 15.4559L147.886 15.4502Z" fill="white"/>
<path d="M80.5465 5.44141C79.5349 5.44141 79.108 5.80914 78.9033 6.7641L76.459 22.0553H81.7453L84.5931 5.44141H80.5465Z" fill="white"/>
<path d="M18.812 5.42969H14.1982C13.4847 5.42969 13.0871 5.66102 12.6134 6.10588L7.33883 11.3077L8.61363 5.42969H4.43254C3.43843 5.42969 3.0291 5.7915 2.82443 6.72273L0 22.0554H5.23952L6.68389 14.8369L11.5667 22.0554H18.0986L11.5959 12.6601L18.8061 5.42969H18.812Z" fill="white"/>
<path d="M90.5681 18.1643L92.7259 5.44141H88.6793C87.6794 5.44141 87.2583 5.79133 87.042 6.7107L84.5918 22.0553H97.5093L98.0005 18.1584H90.5623L90.5681 18.1643Z" fill="white"/>
<path d="M67.5414 10.6365L69.6466 22.0604H75.2487L71.8044 5.44653H66.635C65.8222 5.44653 65.483 5.68379 65.1205 6.27101L58.3547 19.854L53.6766 15.5715C55.7934 14.9665 58.1501 13.3175 58.8108 10.5476C59.9862 5.63042 55.8929 5.42875 54.5303 5.42875H47.0161C46.0454 5.42875 45.8699 5.64228 45.6653 6.53793L44.2209 13.4302C40.5369 10.9924 32.1747 6.05748 26.2861 5.98037C24.8066 5.95665 23.7248 6.18798 22.6781 6.84043C22.5202 6.94127 22.4792 6.92348 22.4558 6.91755L22.5377 6.74551C23.1751 5.96256 24.4674 4.69919 26.6428 4.01707C26.6428 4.01707 30.1163 2.78927 34.7827 5.65415C37.4961 7.32681 39.3205 8.72662 41.0924 10.2095C39.7474 4.55683 34.543 0.523459 28.5959 1.04542C23.2043 1.50808 18.9648 5.55332 17.959 10.6603C20.836 8.04451 26.3504 7.11919 34.7827 10.0434C36.6774 10.7018 38.4258 11.4136 40.0223 12.1431C41.4783 12.8015 42.9578 13.5904 44.5016 14.4919C47.6827 16.3485 51.2381 18.9346 54.1152 22.0486H62.0095L67.5356 10.6247L67.5414 10.6365ZM49.6124 13.7031C49.7762 12.9024 50.6592 8.56648 50.7761 7.99707H52.7234C52.7234 7.99707 54.6765 7.87843 53.9748 10.5476C53.9748 10.5476 53.2029 13.7031 49.6124 13.7031Z" fill="white"/>
<path d="M48.7945 17.8435C48.3735 19.706 47.9232 22.0548 47.9232 22.0548H42.4206L43.672 16.0759C42.444 15.6667 41.5843 15.4235 41.1925 15.3226C40.1867 20.4177 36.029 24.4926 30.6492 24.9553C27.1523 25.2578 23.8893 24.024 21.5151 21.776L21.5034 21.7641C21.5034 21.7641 19.217 19.6526 19.3924 16.6038C19.5678 13.4721 22.287 12.1968 22.287 12.1968C25.4506 10.4767 32.4503 10.2928 42.3445 14.5931C42.3445 14.5931 45.666 15.9158 48.7945 17.8376V17.8435Z" fill="white"/>
</svg>
